<?xml version="1.0" standalone="no"?><!DOCTYPE svg PUBLIC "-//W3C//DTD SVG 1.1//EN" "http://www.w3.org/Graphics/SVG/1.1/DTD/svg11.dtd"><svg t="1735956811526" class="icon" viewBox="0 0 1024 1024" version="1.1" xmlns="http://www.w3.org/2000/svg" p-id="29567" width="256" height="256" xmlns:xlink="http://www.w3.org/1999/xlink"><path d="M58.368 261.632l431.616 244.736c7.68 4.096 16.384 4.096 24.064 0l431.616-244.736c16.896-9.728 16.384-34.304-1.024-43.008L513.024 3.072c-6.656-3.584-14.848-3.584-22.016 0L59.392 218.624c-17.408 8.704-18.432 33.28-1.024 43.008z m24.064-42.496l-1.024 43.008L513.024 46.592h-22.016l431.616 215.552-1.024-43.008-431.616 244.736h24.064L82.432 219.136z m394.752 285.696v470.016c0 18.944 19.968 30.72 36.352 21.504l460.288-259.584c7.68-4.096 12.288-12.288 12.288-21.504V398.848c0-13.312-10.752-24.576-24.576-24.576-13.312 0-24.576 10.752-24.576 24.576v316.416l12.288-21.504L488.96 953.344l36.352 21.504V504.832c0-13.312-10.752-24.576-24.576-24.576-12.288 0-23.552 11.264-23.552 24.576z m37.376 449.024L82.944 694.272l11.776 20.992V254.976c0-13.312-10.752-24.576-24.576-24.576s-24.576 10.752-24.576 24.576v460.288c0 8.704 4.608 16.384 11.776 20.992L488.96 995.84c11.776 7.168 26.624 3.072 33.792-8.192 7.168-11.776 3.072-26.624-8.192-33.792zM172.544 448l143.872 86.528c11.776 7.168 26.624 3.072 33.792-8.192 7.168-11.776 3.072-26.624-8.192-33.792l-143.872-86.528c-11.776-7.168-26.624-3.072-33.792 8.192-7.168 12.288-3.072 27.136 8.192 33.792z" p-id="29568" fill="#bfbfbf"></path></svg>